<svg xmlns="http://www.w3.org/2000/svg" xmlns:xlink="http://www.w3.org/1999/xlink" viewBox="0 0 500 500">
  <defs>
    <clipPath id="clip-path">
      <rect width="500" height="500" fill="none"/>
    </clipPath>
  </defs>
  <g clip-path="url(#clip-path)">
    <circle cx="250" cy="250" r="200" fill="#f8d7da"/>
    <path d="M250,94.5c-82.71,0-150,67.29-150,150s67.29,150,150,150,150-67.29,150-150S332.71,94.5,250,94.5Zm0,270c-66.27,0-120-53.73-120-120s53.73-120,120-120,120,53.73,120,120S316.27,364.5,250,364.5Z" fill="#dc3545"/>
    <path d="M320,160.5H180c-11.05,0-20,8.95-20,20v90c0,11.05,8.95,20,20,20h140c11.05,0,20-8.95,20-20v-90C340,169.45,331.05,160.5,320,160.5Zm-10,30v70H190v-70H310Z" fill="#343a40"/>
    <circle cx="250" cy="225.5" r="15" fill="#343a40"/>
    <path d="M242.5,255.5h15v20h-15Z" fill="#343a40"/>
    <path d="M250,280.5c-8.28,0-15,6.72-15,15v5h30v-5C265,287.22,258.28,280.5,250,280.5Z" fill="#343a40"/>
  </g>
</svg> 